<svg width="25" height="25" viewBox="0 0 25 25" fill="none" xmlns="http://www.w3.org/2000/svg">
<path d="M12.1655 20.2763C14.3165 20.2763 16.3795 19.4218 17.9005 17.9008C19.4215 16.3798 20.276 14.3168 20.276 12.1658C20.276 10.0147 19.4215 7.9518 17.9005 6.43079C16.3795 4.90977 14.3165 4.05527 12.1655 4.05527C10.0144 4.05527 7.9515 4.90977 6.43048 6.43079C4.90947 7.9518 4.05497 10.0147 4.05497 12.1658C4.05497 14.3168 4.90947 16.3798 6.43048 17.9008C7.9515 19.4218 10.0144 20.2763 12.1655 20.2763ZM12.1655 2.02765C13.4968 2.02765 14.8152 2.28988 16.0452 2.79937C17.2752 3.30886 18.3928 4.05563 19.3342 4.99704C20.2756 5.93845 21.0224 7.05607 21.5319 8.28608C22.0414 9.5161 22.3036 10.8344 22.3036 12.1658C22.3036 14.8546 21.2355 17.4333 19.3342 19.3345C17.4329 21.2358 14.8543 22.3039 12.1655 22.3039C6.55909 22.3039 2.02734 17.7418 2.02734 12.1658C2.02734 9.47698 3.09547 6.89831 4.99673 4.99704C6.898 3.09577 9.47667 2.02765 12.1655 2.02765ZM12.6724 7.09671V12.4192L17.2345 15.1261L16.4742 16.3731L11.1517 13.1796V7.09671H12.6724Z" fill="black"/>
</svg>
