<svg width="18" height="25" viewBox="0 0 18 25" fill="none" xmlns="http://www.w3.org/2000/svg">
<g clip-path="url(#clip0_1168_183)">
<path d="M4.7168 18.1622C5.42584 19.0658 6.0712 20.0177 6.64822 21.0109C7.14084 21.945 7.3462 22.5783 7.70622 23.7038C7.92701 24.3257 8.12656 24.5112 8.55559 24.5112C9.02309 24.5112 9.2352 24.1955 9.39908 23.7072C9.73938 22.6444 10.0064 21.8332 10.4277 21.0667C11.2543 19.587 12.2815 18.2721 13.2908 17.0083C13.5641 16.6506 15.3307 14.5669 16.126 12.9227C16.126 12.9227 17.1035 11.1166 17.1035 8.59424C17.1035 6.2348 16.1395 4.59839 16.1395 4.59839L13.3641 5.34167L11.6786 9.78098L11.2616 10.3931L11.1782 10.504L11.0673 10.6428L10.8726 10.8646L10.5944 11.1427L9.09351 12.3655L5.34103 14.5321L4.7168 18.1622Z" fill="#34A853"/>
<path d="M0.84375 12.6191C1.75959 14.711 3.52567 16.5499 4.72055 18.1636L11.0672 10.6457C11.0672 10.6457 10.173 11.8151 8.55113 11.8151C6.7445 11.8151 5.28499 10.3724 5.28499 8.5533C5.28499 7.30584 6.03549 6.44885 6.03549 6.44885L1.72726 7.60326L0.84375 12.6191Z" fill="#FBBC04"/>
<path d="M11.1382 0.386597C13.2461 1.06621 15.0502 2.49298 16.1415 4.59689L11.0693 10.6413C11.0693 10.6413 11.8198 9.76886 11.8198 8.52914C11.8198 6.66767 10.2523 5.27704 8.559 5.27704C6.95773 5.27704 6.03809 6.44447 6.03809 6.44447V2.63655L11.1382 0.386597Z" fill="#4285F4"/>
<path d="M2.00684 3.05736C3.26579 1.5511 5.48107 0 8.53516 0C10.0169 0 11.1332 0.38901 11.1332 0.38901L6.03355 6.44782H2.42036L2.00684 3.05736Z" fill="#1A73E8"/>
<path d="M0.84353 12.6191C0.84353 12.6191 0.000976562 10.9691 0.000976562 8.5788C0.000976562 6.31963 0.879205 4.34485 2.00615 3.05737L6.03574 6.44836L0.84353 12.6191Z" fill="#EA4335"/>
</g>
<defs>
<clipPath id="clip0_1168_183">
<rect width="17.1049" height="24.5177" fill="white"/>
</clipPath>
</defs>
</svg>
