<svg width="25" height="25" viewBox="0 0 25 25" fill="none" xmlns="http://www.w3.org/2000/svg">
<path d="M19.262 19.2624H5.06864V8.11048H19.262M16.2206 1.01379V3.04142H8.11008V1.01379H6.08245V3.04142H5.06864C3.94331 3.04142 3.04102 3.94371 3.04102 5.06905V19.2624C3.04102 19.8002 3.25464 20.3159 3.63489 20.6962C4.01515 21.0764 4.53088 21.2901 5.06864 21.2901H19.262C19.7998 21.2901 20.3155 21.0764 20.6958 20.6962C21.076 20.3159 21.2896 19.8002 21.2896 19.2624V5.06905C21.2896 4.53129 21.076 4.01555 20.6958 3.6353C20.3155 3.25504 19.7998 3.04142 19.262 3.04142H18.2482V1.01379M17.2344 12.1657H12.1653V17.2348H17.2344V12.1657Z" fill="black"/>
</svg>
