<svg width="44" height="44" viewBox="0 0 44 44" fill="none" xmlns="http://www.w3.org/2000/svg">
<path d="M12.5631 25.1257C11.7797 25.1269 11.0059 25.299 10.2959 25.6301C9.58589 25.9611 8.95666 26.4431 8.45214 27.0425C7.94762 27.6418 7.57997 28.344 7.37485 29.1001C7.16972 29.8562 7.13207 30.6479 7.26451 31.42C7.39695 32.1922 7.6963 32.9261 8.14166 33.5706C8.58702 34.2151 9.16767 34.7547 9.84307 35.1516C10.5185 35.5485 11.2724 35.7933 12.0521 35.8688C12.8319 35.9443 13.6188 35.8488 14.3578 35.5888" stroke="black" stroke-width="4" stroke-linecap="round" stroke-linejoin="round"/>
<path d="M7.65268 28.0062C6.57867 27.4892 5.65031 26.7128 4.95139 25.7472C4.25248 24.7816 3.80501 23.6572 3.64936 22.4754C3.49371 21.2936 3.63478 20.0916 4.05985 18.978C4.48492 17.8644 5.18061 16.8741 6.08411 16.0966M6.13796 15.9512C5.54937 15.0705 5.2914 14.0099 5.4097 12.9572C5.52801 11.9045 6.01496 10.9276 6.78436 10.1995C7.55376 9.47138 8.55597 9.03896 9.61357 8.9788C10.6712 8.91864 11.716 9.23463 12.563 9.87082M12.9901 9.98747C12.7038 9.37915 12.5579 8.71427 12.5631 8.04196C12.5683 7.36965 12.7246 6.70712 13.0203 6.10332C13.316 5.49953 13.7437 4.96991 14.2716 4.55363C14.7996 4.13734 15.4143 3.84502 16.0705 3.69828C16.7266 3.55155 17.4073 3.55414 18.0623 3.70587C18.7172 3.8576 19.3298 4.15459 19.8545 4.57488C20.3793 4.99518 20.8029 5.52803 21.094 6.13406C21.3851 6.74009 21.5363 7.4038 21.5364 8.07612V35.8939C21.5364 36.8459 21.1583 37.7588 20.4851 38.432C19.812 39.1051 18.899 39.4833 17.947 39.4833C16.9951 39.4833 16.0821 39.1051 15.409 38.432C14.7358 37.7588 14.3577 36.8459 14.3577 35.8939M21.5364 12.5629C21.5364 13.9908 22.1037 15.3603 23.1134 16.37C24.1231 17.3797 25.4926 17.9469 26.9205 17.9469M30.5099 25.1257C31.2933 25.1269 32.067 25.299 32.7771 25.6301C33.4871 25.9611 34.1163 26.4431 34.6209 27.0425C35.1254 27.6418 35.493 28.344 35.6981 29.1001C35.9033 29.8562 35.9409 30.6479 35.8085 31.42C35.676 32.1922 35.3767 32.9261 34.9313 33.5706C34.486 34.2151 33.9053 34.7547 33.2299 35.1516C32.5545 35.5485 31.8006 35.7933 31.0209 35.8688C30.2411 35.9443 29.4542 35.8488 28.7152 35.5888" stroke="black" stroke-width="4" stroke-linecap="round" stroke-linejoin="round"/>
<path d="M35.4204 28.0062C36.4944 27.4892 37.4228 26.7128 38.1217 25.7472C38.8206 24.7816 39.2681 23.6572 39.4237 22.4754C39.5794 21.2936 39.4383 20.0916 39.0132 18.978C38.5881 17.8644 37.8925 16.8741 36.9889 16.0966M36.9351 15.9512C37.5237 15.0705 37.7817 14.0099 37.6634 12.9572C37.545 11.9045 37.0581 10.9276 36.2887 10.1995C35.5193 9.47138 34.5171 9.03896 33.4595 8.9788C32.4019 8.91864 31.3571 9.23463 30.5101 9.87082M21.5366 8.07612C21.5367 7.4038 21.6879 6.74009 21.9791 6.13406C22.2702 5.52803 22.6938 4.99518 23.2185 4.57488C23.7433 4.15459 24.3558 3.8576 25.0108 3.70587C25.6658 3.55414 26.3465 3.55155 27.0026 3.69828C27.6587 3.84502 28.2735 4.13734 28.8014 4.55363C29.3294 4.96991 29.757 5.49953 30.0527 6.10332C30.3485 6.70712 30.5047 7.36965 30.51 8.04196C30.5152 8.71427 30.3693 9.37915 30.083 9.98747M28.7154 35.8939C28.7154 36.8459 28.3372 37.7588 27.6641 38.432C26.991 39.1051 26.078 39.4833 25.126 39.4833C24.174 39.4833 23.2611 39.1051 22.5879 38.432C21.9148 37.7588 21.5366 36.8459 21.5366 35.8939" stroke="black" stroke-width="4" stroke-linecap="round" stroke-linejoin="round"/>
</svg>
